<svg width="11" height="16" viewBox="0 0 11 16" fill="none" xmlns="http://www.w3.org/2000/svg">
<path fill-rule="evenodd" clip-rule="evenodd" d="M9.69492 1.77188C9.48398 1.56121 9.19804 1.44287 8.89992 1.44287C8.60179 1.44287 8.31585 1.56121 8.10492 1.77188L2.10492 7.77188C1.89424 7.98282 1.77591 8.26875 1.77591 8.56688C1.77591 8.86501 1.89424 9.15094 2.10492 9.36188L8.10492 15.3619C8.20791 15.4724 8.33211 15.5611 8.47011 15.6226C8.60811 15.684 8.75708 15.7171 8.90813 15.7198C9.05919 15.7224 9.20923 15.6946 9.34931 15.6381C9.48939 15.5815 9.61664 15.4973 9.72347 15.3904C9.8303 15.2836 9.91452 15.1564 9.9711 15.0163C10.0277 14.8762 10.0555 14.7262 10.0528 14.5751C10.0501 14.424 10.0171 14.2751 9.95559 14.1371C9.8941 13.9991 9.80545 13.8749 9.69492 13.7719L4.48992 8.56688L9.69492 3.36188C9.90559 3.15094 10.0239 2.86501 10.0239 2.56688C10.0239 2.26876 9.90559 1.98282 9.69492 1.77188Z" fill="#302525"/>
</svg>
