<svg width="16" height="17" viewBox="0 0 16 17" fill="none" xmlns="http://www.w3.org/2000/svg">
<path d="M16.0003 8.94281C16.0003 8.37553 15.9484 7.8301 15.8519 7.30643H8.16357V10.4009H12.5569C12.3677 11.4009 11.7926 12.2482 10.928 12.8155V14.8227H13.5662C15.1098 13.43 16.0003 11.3791 16.0003 8.94281Z" fill="#4285F4"/>
<path d="M8.16367 16.7609C10.3678 16.7609 12.2156 16.0445 13.5662 14.8227L10.928 12.8155C10.1971 13.2955 9.26196 13.5791 8.16367 13.5791C6.03747 13.5791 4.23788 12.1718 3.59592 10.2809H0.868652V12.3536C2.21192 14.9682 4.97257 16.7609 8.16367 16.7609Z" fill="#34A853"/>
<path d="M3.59551 10.2809C3.43224 9.80094 3.33951 9.28822 3.33951 8.76095C3.33951 8.23368 3.43224 7.72096 3.59551 7.24097V5.16827H0.868245C0.315428 6.24826 0 7.47008 0 8.76095C0 10.0518 0.315428 11.2736 0.868245 12.3536L3.59551 10.2809Z" fill="#FBBC04"/>
<path d="M8.16367 3.94266C9.36212 3.94266 10.4382 4.34626 11.2842 5.13897L13.6256 2.84444C12.2119 1.55357 10.364 0.760864 8.16367 0.760864C4.97257 0.760864 2.21192 2.55356 0.868652 5.16809L3.59592 7.24078C4.23788 5.34993 6.03747 3.94266 8.16367 3.94266Z" fill="#E94235"/>
</svg>
